<svg version="1.1" id="Layer_1" xmlns="http://www.w3.org/2000/svg" xmlns:xlink="http://www.w3.org/1999/xlink" x="0px" y="0px"
	 width="100%" viewBox="0 0 1024 1024" enable-background="new 0 0 1024 1024" xml:space="preserve">
<path fill="#6b9122" opacity="1.000000" stroke="none" 
	d="
M385.384644,414.565430 
	C387.084076,407.084351 392.093109,401.217346 392.604156,393.599487 
	C392.783783,390.922455 395.637482,388.528595 396.741028,385.792053 
	C401.883087,373.041290 406.795959,360.198395 411.875702,347.422150 
	C416.659668,335.389801 421.985504,323.553345 426.288422,311.353973 
	C432.364899,294.126190 440.675293,277.757507 445.635529,260.105865 
	C446.889191,255.644440 448.942230,251.402344 450.704956,247.090942 
	C452.162292,243.526459 450.952179,240.933868 447.425415,240.186325 
	C436.803253,237.934799 434.569427,230.994186 434.882507,221.160431 
	C435.394775,205.070038 435.109375,207.765045 448.533264,207.725754 
	C486.192810,207.615509 523.853271,207.764694 561.512329,207.584946 
	C566.077087,207.563171 568.567200,209.075058 570.181641,213.223831 
	C574.502869,224.328323 578.577515,235.559753 583.134705,246.530151 
	C589.254089,261.261353 593.929993,276.517212 600.527771,291.085510 
	C605.988464,303.142944 609.594604,316.032623 614.197144,328.489014 
	C617.478760,337.370300 621.078369,346.133698 624.485657,354.969147 
	C629.375427,367.648560 634.210205,380.349152 639.085144,393.034302 
	C645.040161,408.529816 651.041992,424.007385 656.969238,439.513489 
	C663.714172,457.158813 669.792908,475.070526 676.642334,492.649109 
	C682.667603,508.112915 687.958740,523.852844 694.249084,539.224487 
	C697.257812,546.576904 700.925781,553.672791 703.155212,561.403198 
	C706.260803,572.171570 718.053894,581.242249 728.977295,581.964722 
	C732.889343,582.223450 736.233032,584.247498 739.949707,585.120178 
	C742.133118,585.632996 742.829407,587.865662 742.849487,589.933411 
	C742.914001,596.588623 742.844299,603.245422 742.787476,609.901306 
	C742.768005,612.187500 741.610596,613.737000 739.353577,614.181885 
	C737.242371,614.598083 735.085510,615.026062 732.948059,615.028992 
	C698.788391,615.075745 664.628662,615.053345 630.468933,615.050537 
	C612.007996,615.049011 593.547058,615.079224 575.086243,615.029663 
	C572.437439,615.022522 569.766235,614.801941 567.146240,614.408325 
	C561.126526,613.503906 559.456787,608.797852 563.407043,603.885742 
	C564.652710,602.336731 566.070435,600.866028 567.631775,599.643372 
	C570.828369,597.140259 571.651611,593.960815 570.433838,590.302307 
	C568.972839,585.913086 570.802979,582.856384 574.062439,580.317932 
	C577.205261,577.870422 580.485901,575.600159 583.638611,573.164856 
	C590.714111,567.699524 592.424683,562.475464 589.971191,553.794128 
	C589.020996,550.432068 587.986511,547.088745 586.846497,543.786621 
	C585.225525,539.091492 585.533691,534.551270 587.970093,530.280396 
	C592.178955,522.902588 596.680237,515.896851 603.743225,510.599548 
	C613.045776,503.622559 619.406433,494.130066 623.898804,483.418427 
	C624.688782,481.534729 625.351074,479.543976 623.846375,477.752960 
	C622.154175,475.738739 619.923157,476.427399 617.802490,476.907013 
	C616.991150,477.090546 616.188293,477.317780 615.391602,477.558289 
	C605.410461,480.570984 603.286621,479.868774 597.322083,471.528046 
	C596.453918,470.313995 595.927429,468.596466 594.768433,467.889923 
	C584.059753,461.361481 579.977844,450.257294 574.883667,439.788269 
	C573.364563,436.666321 571.409302,433.679779 569.227844,430.974731 
	C565.903442,426.852356 564.373901,422.719543 565.600037,417.216553 
	C566.920349,411.290497 563.439087,408.411774 557.238281,408.781921 
	C551.097168,409.148560 544.927002,409.010864 538.770996,409.155304 
	C536.278137,409.213837 534.246521,408.049835 532.294556,406.802795 
	C528.254944,404.222046 524.389160,405.301910 522.197876,408.722198 
	C519.340576,413.182220 515.817139,412.108063 512.672424,410.636993 
	C507.716644,408.318817 502.845520,405.876862 497.718140,403.900299 
	C494.104340,402.507141 491.540894,400.022858 492.768097,395.389496 
	C493.754608,391.664886 490.920990,390.276489 488.218201,390.472290 
	C478.712677,391.160828 468.882507,389.041077 459.773804,393.435760 
	C457.645813,394.462433 455.421722,395.560028 453.087158,395.115875 
	C448.167725,394.179932 444.282074,395.943939 440.070435,398.323456 
	C435.880890,400.690460 432.765015,403.335693 431.427277,408.003204 
	C430.608612,410.859528 428.732025,412.928802 426.010010,414.207764 
	C415.992981,418.914062 410.268677,427.692749 404.671448,436.622437 
	C403.222870,438.933441 403.201019,441.284515 403.606140,443.818268 
	C404.382904,448.676117 404.213959,453.738068 401.540131,457.753265 
	C397.297852,464.123657 399.350708,469.912292 404.517609,475.780853 
	C407.300049,478.941162 409.728241,482.034485 411.441010,485.971985 
	C414.823975,493.748779 426.154510,498.809570 434.217896,496.707642 
	C434.862701,496.539581 435.536469,496.125824 436.140839,496.213226 
	C445.444733,497.558929 454.152893,493.049927 462.763794,492.809784 
	C470.718719,492.587952 479.603577,497.316711 486.354858,503.272675 
	C488.148224,504.854767 487.948273,507.607056 486.723755,509.845367 
	C483.232178,516.227478 484.951111,521.794495 489.563965,526.695068 
	C497.648712,535.284180 498.962189,546.250732 499.801697,557.097900 
	C500.124695,561.271301 496.041168,564.964111 495.569763,569.650635 
	C495.199860,573.327881 495.553558,576.385681 497.288300,579.659058 
	C501.264435,587.161621 504.954285,594.840942 505.248901,603.587646 
	C505.360962,606.915222 507.681183,609.337646 508.808807,612.537476 
	C505.891876,614.935059 502.457611,614.985229 499.038544,614.984680 
	C451.047668,614.976440 403.056793,614.939697 355.065918,614.941589 
	C335.236328,614.942322 315.406708,615.018555 295.577118,615.060425 
	C294.577301,615.062561 293.577362,615.077881 292.577728,615.065002 
	C283.605530,614.949829 281.618439,612.522217 282.372498,603.632507 
	C282.749908,599.183289 282.274078,594.667053 282.316956,590.182373 
	C282.355316,586.176025 284.489929,583.836731 288.511047,583.961426 
	C300.936340,584.346741 311.053894,579.291016 319.968628,571.135315 
	C321.085388,570.113647 322.307343,569.228638 322.778015,567.724487 
	C324.959351,560.753418 328.168365,554.212341 331.059570,547.530457 
	C335.725311,536.747375 340.364868,525.938843 344.532288,514.957703 
	C350.246063,499.901917 357.395844,485.465210 363.010223,470.353699 
	C369.075745,454.027954 376.101868,438.056946 382.831390,421.982483 
	C383.801605,419.665009 384.682617,417.365509 385.384644,414.565430 
M509.445679,352.916443 
	C519.748108,347.576172 524.544861,337.461945 529.068848,327.941162 
	C533.896667,317.780884 535.636902,306.396912 534.859192,294.881592 
	C534.721680,292.846436 534.562256,290.540283 536.649109,288.967346 
	C546.635803,296.645935 540.839539,308.817352 544.709900,318.854248 
	C547.525635,315.984680 548.867737,313.358917 548.287231,310.270721 
	C546.767639,302.188324 545.924866,293.962677 542.169739,286.385101 
	C539.730225,281.462158 537.537659,276.450439 533.921753,272.247559 
	C531.520081,269.456116 527.685974,269.311646 525.993225,272.519806 
	C522.320435,279.480469 516.166565,283.927490 510.993195,289.436096 
	C503.991425,296.891510 494.893463,302.047760 489.135254,310.871582 
	C484.491302,317.987915 477.239197,323.402771 477.140320,333.099518 
	C477.019409,344.953186 484.447754,353.006317 490.756287,361.665192 
	C491.872406,363.197144 493.847595,363.386871 495.290131,362.349670 
	C499.710693,359.171326 505.542694,358.149231 509.445679,352.916443 
M603.046814,574.797241 
	C601.700073,580.749634 600.833069,586.756775 597.986633,592.380432 
	C595.841614,596.618408 597.733459,601.854187 600.680176,602.802917 
	C605.352234,604.307129 608.262573,602.563232 610.651367,597.248840 
	C613.987976,589.825745 617.262878,582.354736 621.068726,575.171509 
	C622.911804,571.692871 622.684082,568.601135 621.792419,565.138245 
	C621.032837,562.187927 619.163269,561.399170 617.119629,563.272339 
	C612.795044,567.236206 608.478333,571.148193 603.046814,574.797241 
z"/>
<path fill="#000000" opacity="1.000000" stroke="none" 
	d="
M443.936005,704.000000 
	C443.930237,686.511047 443.907379,669.522095 443.934113,652.533203 
	C443.948212,643.559937 444.485352,642.927307 453.661255,643.017334 
	C465.970001,643.138000 478.337646,641.900391 490.576721,643.784424 
	C508.704071,646.574890 521.161377,659.368469 522.650024,677.514221 
	C523.636963,689.545044 518.969421,699.820557 509.035828,706.973816 
	C505.082672,709.820679 504.929718,711.964233 507.366211,715.880798 
	C512.983704,724.910522 518.178101,734.206421 523.431519,743.458252 
	C525.595215,747.268738 524.660034,748.900696 520.140930,749.051758 
	C514.317810,749.246460 508.484070,749.133240 502.654907,749.129944 
	C499.883820,749.128357 498.109131,747.786743 496.745972,745.324097 
	C491.910797,736.588989 486.672516,728.070312 482.041626,719.231384 
	C479.705292,714.772034 476.125031,714.720032 472.309906,715.341980 
	C468.271667,716.000366 469.314026,719.616699 469.261963,722.238159 
	C469.123108,729.230286 469.135834,736.229797 469.292175,743.221802 
	C469.386993,747.463257 467.647156,749.341553 463.351898,749.163452 
	C459.028564,748.984253 454.685150,748.954468 450.363861,749.151733 
	C445.506958,749.373413 443.908691,746.992981 443.942383,742.475281 
	C444.036804,729.817627 443.953003,717.158508 443.936005,704.000000 
M480.460876,691.999146 
	C482.283875,691.954468 484.109100,691.952942 485.929443,691.857361 
	C493.074005,691.482361 497.510406,686.851685 497.592194,679.722534 
	C497.668854,673.041443 492.695099,667.742188 485.815979,667.404541 
	C481.845215,667.209717 477.855774,667.416260 473.881683,667.262634 
	C470.420013,667.128845 469.104980,668.711914 469.232117,672.051392 
	C469.358124,675.362305 469.205627,678.682861 469.240997,681.998413 
	C469.357574,692.927429 467.881897,691.954346 480.460876,691.999146 
z"/>
<path fill="#000000" opacity="1.000000" stroke="none" 
	d="
M325.304810,733.121887 
	C315.226929,733.043335 305.565033,733.242798 295.918671,732.942993 
	C291.379883,732.801880 289.127716,734.637573 288.188293,738.824524 
	C285.495544,750.825684 284.798950,749.039978 274.460541,749.145935 
	C270.964447,749.181824 267.465271,749.245972 263.971893,749.145203 
	C258.545746,748.988647 257.548157,747.470398 259.349792,742.219360 
	C266.253143,722.098694 273.190491,701.989624 280.091736,681.868225 
	C283.919525,670.707764 287.768127,659.553467 291.465210,648.349487 
	C292.686096,644.649597 294.948883,642.935730 298.820923,642.979919 
	C305.646057,643.057922 312.472748,643.005554 319.298767,642.994202 
	C322.902740,642.988220 324.956299,644.540588 326.169586,648.163818 
	C334.986023,674.491943 343.998871,700.754395 352.953339,727.036255 
	C354.881226,732.694641 356.732178,738.381836 358.795776,743.990479 
	C359.993073,747.244568 358.854462,748.978699 355.646912,749.059082 
	C348.992615,749.226013 342.329865,749.164673 335.672791,749.057983 
	C332.884430,749.013367 331.934540,746.917664 331.017395,744.584778 
	C329.487488,740.693542 329.596527,736.002197 325.304810,733.121887 
M309.945526,678.069763 
	C307.492462,675.436218 307.422394,678.263000 307.024445,679.483276 
	C305.273987,684.850952 303.653748,690.261536 302.020081,695.666748 
	C300.789246,699.739075 298.765717,703.620667 298.750397,708.569580 
	C305.617859,709.025574 312.234436,709.280823 319.501892,708.338928 
	C316.253113,697.936035 313.245728,688.306152 309.945526,678.069763 
z"/>
<path fill="#000000" opacity="1.000000" stroke="none" 
	d="
M758.803223,749.136597 
	C754.166382,749.146118 749.972595,748.846863 745.846313,749.245850 
	C740.860840,749.727966 737.857666,747.608643 735.197266,743.595276 
	C727.380859,731.804016 719.257690,720.216125 711.250793,708.551208 
	C710.518494,707.484375 710.082642,706.100525 708.392944,705.867065 
	C706.537720,707.149658 707.332520,709.133545 707.326477,710.807556 
	C707.287170,721.631348 707.265503,732.456726 707.416199,743.279053 
	C707.475525,747.539124 705.741150,749.374939 701.455078,749.198669 
	C696.965271,749.014038 692.450378,748.936523 687.968567,749.195435 
	C682.843933,749.491638 681.794373,746.729187 681.808228,742.390747 
	C681.879761,720.071960 681.833923,697.752747 681.827515,675.433716 
	C681.824951,666.772644 681.911865,658.110046 681.774109,649.451050 
	C681.703796,645.031555 683.623413,642.949463 688.009888,642.988220 
	C692.173218,643.025024 696.339294,642.905090 700.500366,643.008789 
	C706.217590,643.151245 707.339600,644.340454 707.350891,650.300781 
	C707.370483,660.626465 707.292847,670.952209 707.279968,681.277954 
	C707.278992,682.077393 707.466248,682.877075 707.693298,684.696289 
	C712.099915,681.538696 713.764404,677.089294 716.377319,673.556885 
	C722.906250,664.730713 729.082886,655.643799 735.382751,646.648743 
	C737.021362,644.309143 739.144226,642.962158 742.075012,642.963196 
	C747.904358,642.965271 753.736511,642.796997 759.562134,642.931702 
	C764.734497,643.051331 765.755493,645.095947 762.763306,649.471924 
	C753.934631,662.383301 744.996216,675.219727 736.080688,688.071594 
	C731.292908,694.973083 731.274353,694.960205 736.095154,701.951843 
	C745.158142,715.096069 754.242493,728.225647 763.259583,741.401245 
	C764.515198,743.235901 767.021790,745.000671 765.691650,747.490967 
	C764.401306,749.906555 761.524109,748.911804 758.803223,749.136597 
z"/>
<path fill="#000000" opacity="1.000000" stroke="none" 
	d="
M602.192627,647.069458 
	C628.333862,634.450317 654.989990,643.806946 668.666870,660.723083 
	C672.884094,665.939087 672.720520,666.916321 667.070129,670.192566 
	C663.471252,672.279419 659.587219,673.936951 656.206116,676.319336 
	C652.758789,678.748291 650.412476,678.382385 647.709900,675.231873 
	C636.847778,662.569641 615.516907,664.883179 605.957397,674.822937 
	C596.434692,684.724487 595.495178,704.129272 604.140198,715.553406 
	C611.911011,725.822327 628.933838,729.239075 640.960022,722.897766 
	C643.793823,721.403442 646.122253,719.241821 648.161560,716.790771 
	C650.281494,714.242920 652.537720,713.582397 655.549561,715.507263 
	C660.037354,718.375305 664.710449,720.951477 669.259827,723.725464 
	C671.899780,725.335205 672.361450,727.264526 670.284241,729.889038 
	C660.970459,741.656555 649.240967,748.863708 634.039307,750.341492 
	C618.434753,751.858398 604.235168,748.799072 591.924316,738.738770 
	C562.142090,714.400940 567.541382,664.698181 602.192627,647.069458 
z"/>
<path fill="#000000" opacity="1.000000" stroke="none" 
	d="
M431.405243,656.572266 
	C431.424988,668.219360 433.202209,668.318909 419.987732,668.219910 
	C412.488953,668.163757 404.987213,668.305237 397.491302,668.146484 
	C393.657104,668.065308 392.071625,669.537903 392.148376,673.436218 
	C392.439392,688.222534 390.348694,685.782959 404.467926,686.087097 
	C411.129974,686.230652 417.800385,685.967773 424.463654,686.082458 
	C430.021637,686.178040 431.096283,687.391907 431.119019,692.954468 
	C431.135376,696.953308 430.928040,700.958008 431.081635,704.950073 
	C431.254272,709.437500 429.292786,711.271667 424.829132,711.207397 
	C415.832367,711.077820 406.826599,711.392395 397.835327,711.139893 
	C393.362885,711.014221 392.014221,712.741516 392.119415,717.003296 
	C392.337341,725.829895 392.100159,734.666748 392.198517,743.497742 
	C392.242462,747.445862 390.765167,749.384460 386.598755,749.195740 
	C382.274384,748.999817 377.934784,749.158142 373.602234,749.119080 
	C367.869781,749.067444 366.962738,748.250671 366.940613,742.419128 
	C366.878052,725.921387 366.921387,709.423340 366.910156,692.925415 
	C366.900482,678.760376 366.845123,664.595276 366.866272,650.430298 
	C366.875610,644.181519 367.921234,643.059631 374.098938,643.030640 
	C390.430084,642.954163 406.761780,642.973022 423.093231,642.982605 
	C430.765259,642.987122 431.386658,643.627258 431.418457,651.172668 
	C431.425476,652.837891 431.417542,654.503113 431.405243,656.572266 
z"/>
<path fill="#000000" opacity="1.000000" stroke="none" 
	d="
M545.093445,749.126831 
	C535.734253,749.114746 535.755615,749.114746 535.760010,740.257019 
	C535.775024,710.467773 535.773743,680.678528 535.777832,650.889282 
	C535.778748,644.184692 536.758545,643.146667 543.547852,643.025391 
	C547.540039,642.954224 551.535156,643.033142 555.528870,643.058777 
	C559.115662,643.081726 561.121521,644.656006 561.119324,648.483887 
	C561.101013,680.270020 561.105469,712.056091 561.143555,743.842224 
	C561.147766,747.357910 559.578125,749.116089 556.058411,749.116272 
	C552.563904,749.116455 549.069397,749.118652 545.093445,749.126831 
z"/>
<path fill="#000000" opacity="1.000000" stroke="none" 
	d="
M752.195923,807.775269 
	C748.436279,802.702820 744.891174,797.917603 741.346130,793.132446 
	C740.971069,793.180176 740.596008,793.227966 740.220947,793.275696 
	C740.220947,798.977539 740.172546,804.679932 740.237427,810.381042 
	C740.283203,814.408630 739.926208,817.709106 734.461853,817.524292 
	C726.896790,817.268433 726.037842,816.776855 726.026855,810.472412 
	C726.004150,797.473755 725.956177,784.474731 726.054138,771.476868 
	C726.075500,768.650269 725.079041,764.849854 729.045959,763.906433 
	C733.149841,762.930359 737.119202,763.052856 739.951660,767.505310 
	C743.698120,773.394470 748.015930,778.921631 752.133423,784.571411 
	C752.691711,785.337341 753.512878,785.911743 755.010803,787.331848 
	C755.010803,781.408142 755.046692,776.419739 755.002380,771.432007 
	C754.937256,764.103577 759.401367,760.955261 766.292786,763.515381 
	C768.547363,764.352905 769.055664,766.156921 769.051270,768.317688 
	C769.022278,782.482422 769.022278,796.647156 768.996460,810.811890 
	C768.991760,813.365967 768.932983,816.149353 765.959595,817.012878 
	C762.841003,817.918579 759.562561,817.952026 757.260437,815.035278 
	C755.509583,812.817017 754.017578,810.394287 752.195923,807.775269 
z"/>
<path fill="#000000" opacity="1.000000" stroke="none" 
	d="
M667.540466,762.239746 
	C682.317017,761.138977 695.197388,770.452881 698.021606,783.880066 
	C700.923096,797.674622 693.307251,810.749878 680.100220,816.421997 
	C662.472656,823.992493 641.803711,808.204651 642.639038,790.796509 
	C643.406616,774.801270 650.514893,765.787842 667.540466,762.239746 
M676.537170,803.200012 
	C682.589233,800.112122 685.529907,794.613831 684.601807,788.121460 
	C683.755371,782.200012 679.739868,777.524109 674.540161,776.404907 
	C667.444458,774.877563 661.826355,776.938538 658.397583,782.326477 
	C655.630310,786.674927 655.913452,794.855835 658.968872,798.833008 
	C663.156677,804.284180 668.481018,805.757446 676.537170,803.200012 
z"/>
<path fill="#000000" opacity="1.000000" stroke="none" 
	d="
M371.883728,771.149292 
	C380.087341,780.916504 381.543182,793.168762 375.934052,803.481201 
	C370.341553,813.763123 358.347717,820.387817 346.618408,818.036743 
	C327.954285,814.295654 318.741852,796.688721 325.281403,779.258057 
	C331.809052,761.859070 357.394745,755.587708 371.883728,771.149292 
M338.647614,797.616760 
	C340.514404,801.646362 344.292542,803.167236 348.081451,804.377502 
	C355.152893,806.636169 363.428925,801.151917 365.360779,793.179810 
	C367.175598,785.690552 361.837128,777.427368 354.438080,776.273193 
	C341.370239,774.234741 334.041290,783.598328 338.647614,797.616760 
z"/>
<path fill="#000000" opacity="1.000000" stroke="none" 
	d="
M283.207336,778.693237 
	C282.394928,778.056824 281.906738,777.538208 281.307709,777.307739 
	C278.511902,776.232178 274.914825,774.679810 273.616455,778.387451 
	C272.415131,781.817993 276.304901,782.170837 278.709930,783.065918 
	C282.290100,784.398254 285.918335,785.630127 289.407684,787.172607 
	C299.925354,791.822021 301.567566,806.257751 292.491821,813.690308 
	C282.583832,821.804382 265.645111,819.276550 258.400909,808.727966 
	C256.342285,805.730408 256.759003,803.984192 259.770355,801.809570 
	C264.235260,798.585266 267.943207,797.368408 272.213531,802.155396 
	C274.175934,804.355225 277.249054,805.402527 280.476349,804.636658 
	C281.993317,804.276611 283.383423,803.569092 283.889954,802.025818 
	C284.488556,800.201904 282.957397,799.244873 281.780914,798.469666 
	C280.567169,797.669922 279.100403,797.169189 277.677216,796.789001 
	C274.123169,795.839783 270.746155,794.494080 267.482941,792.806091 
	C256.496216,787.122864 255.184555,773.782410 264.870972,766.026855 
	C272.351807,760.037231 287.062347,761.321594 293.104004,768.711243 
	C294.865631,770.865967 297.587036,773.343445 294.808624,776.567444 
	C291.741730,780.126221 286.840820,781.057861 283.207336,778.693237 
z"/>
<path fill="#000000" opacity="1.000000" stroke="none" 
	d="
M479.184204,769.350708 
	C479.189087,778.809570 479.129517,787.809875 479.230286,796.808472 
	C479.287964,801.960815 482.102905,804.860352 486.663971,804.830383 
	C490.904541,804.802551 493.653992,801.882874 493.708832,796.904297 
	C493.809753,787.739258 493.673676,778.571777 493.738770,769.406006 
	C493.778900,763.757874 494.354095,763.498718 501.816711,763.239441 
	C506.185760,763.087646 507.263702,765.492493 507.238708,769.182800 
	C507.170990,779.181824 507.323883,789.186035 507.051239,799.179077 
	C506.704315,811.896484 500.275421,815.243347 491.559418,817.872131 
	C482.464722,820.615112 471.597809,815.832275 467.272095,808.146118 
	C466.430695,806.651062 465.975372,805.077820 465.957672,803.385010 
	C465.832214,791.388611 465.734680,779.391907 465.599762,767.395630 
	C465.568848,764.645874 466.936768,763.604675 469.590607,763.460510 
	C478.094727,762.998779 478.525818,763.188049 479.184204,769.350708 
z"/>
<path fill="#000000" opacity="1.000000" stroke="none" 
	d="
M560.921082,782.286011 
	C560.923340,792.074341 560.972717,801.396667 560.921204,810.718384 
	C560.891785,816.044067 558.840637,818.017700 553.731567,817.912720 
	C548.405396,817.803345 546.802612,816.137085 546.794189,810.548340 
	C546.780212,801.226440 546.794800,791.904480 546.829102,782.582642 
	C546.849792,776.963989 546.179321,776.268982 540.541199,776.320740 
	C533.683655,776.383728 531.066956,772.560913 533.358948,765.956787 
	C533.943176,764.273438 534.989197,763.599365 536.697083,763.587891 
	C547.993042,763.511902 559.289001,763.418579 570.584656,763.306335 
	C572.573914,763.286621 573.892212,764.228333 574.030396,766.137146 
	C574.209595,768.612854 574.343506,771.176208 573.901428,773.592896 
	C573.222168,777.306274 570.187256,776.715759 567.520081,776.397339 
	C563.402771,775.905701 560.503662,776.824280 560.921082,782.286011 
z"/>
<path fill="#000000" opacity="1.000000" stroke="none" 
	d="
M407.719635,793.999939 
	C407.690216,785.183350 407.640167,776.866760 407.646179,768.550110 
	C407.649536,763.923279 408.927765,763.254883 416.638092,763.363159 
	C420.184418,763.413025 421.681305,765.000488 421.632690,768.603027 
	C421.502625,778.242310 421.674347,787.885803 421.528442,797.524658 
	C421.459045,802.107727 422.992737,804.502563 427.950500,803.710632 
	C429.247528,803.503479 430.608246,803.728760 431.937164,803.682068 
	C439.569244,803.414124 442.090027,806.645020 439.953094,813.997253 
	C439.330475,816.139343 438.008148,817.455811 435.665466,817.446106 
	C428.015411,817.414368 420.365448,817.343445 412.715424,817.332031 
	C409.079346,817.326599 407.722046,815.373474 407.745148,811.965088 
	C407.784607,806.143677 407.734772,800.321655 407.719635,793.999939 
z"/>
<path fill="#000000" opacity="1.000000" stroke="none" 
	d="
M602.126831,816.428284 
	C600.718872,814.713562 600.790039,813.031677 600.790649,811.361145 
	C600.795715,797.362915 600.774841,783.364624 600.811035,769.366455 
	C600.825195,763.907837 601.762573,763.350647 609.014954,763.182495 
	C613.514893,763.078186 614.148804,765.686890 614.123962,769.317444 
	C614.034973,782.315186 614.081055,795.313721 614.056641,808.311951 
	C614.038940,817.752930 612.212036,819.062134 602.126831,816.428284 
z"/>
</svg>